<svg width="61" height="39" fill="none" xmlns="http://www.w3.org/2000/svg"><g clip-path="url(#a)"><rect width="60.938" height="39" rx="3" fill="#0F3560"/><path d="M35.565 29.12H24.862V9.886h10.703V29.12z" fill="#FF5F00"/><path d="M25.548 19.501c0-3.902 1.827-7.377 4.672-9.617a12.179 12.179 0 0 0-7.56-2.615c-6.755 0-12.23 5.476-12.23 12.232 0 6.756 5.476 12.233 12.23 12.233 2.854 0 5.48-.978 7.56-2.616a12.212 12.212 0 0 1-4.672-9.617z" fill="#EB001B"/><path d="M50 19.501c0 6.756-5.476 12.233-12.23 12.233-2.854 0-5.48-.978-7.561-2.616a12.21 12.21 0 0 0 4.673-9.617 12.21 12.21 0 0 0-4.673-9.617 12.183 12.183 0 0 1 7.56-2.615C44.524 7.269 50 12.745 50 19.5z" fill="#F79E1B"/><path d="M19.633 19.579c0-.534.35-.973.923-.973.546 0 .915.42.915.973 0 .553-.369.973-.915.973-.573 0-.923-.439-.923-.973zm2.462 0v-1.52h-.662v.369c-.21-.274-.527-.445-.96-.445-.852 0-1.52.668-1.52 1.596 0 .929.668 1.596 1.52 1.596.433 0 .75-.172.96-.445v.369h.662v-1.52zm22.336 0c0-.534.35-.973.922-.973.548 0 .916.42.916.973 0 .553-.368.973-.916.973-.572 0-.922-.439-.922-.973zm2.462 0v-2.74h-.662v1.589c-.21-.274-.528-.445-.96-.445-.852 0-1.52.668-1.52 1.596 0 .929.668 1.596 1.52 1.596.432 0 .75-.172.96-.445v.369h.662v-1.52zm-16.594-1.005c.426 0 .7.267.77.738H29.49c.07-.44.337-.738.808-.738zm.013-.591c-.89 0-1.514.648-1.514 1.596 0 .967.649 1.596 1.559 1.596.458 0 .877-.114 1.246-.426l-.324-.49c-.255.204-.58.319-.884.319-.426 0-.814-.198-.91-.745h2.258c.006-.082.013-.165.013-.254-.007-.948-.592-1.596-1.444-1.596zm7.982 1.596c0-.534.35-.973.922-.973.547 0 .916.42.916.973 0 .553-.37.973-.916.973-.572 0-.922-.439-.922-.973zm2.46 0v-1.52h-.66v.369c-.21-.274-.528-.445-.96-.445-.853 0-1.521.668-1.521 1.596 0 .929.668 1.596 1.52 1.596.433 0 .75-.172.96-.445v.369h.662v-1.52zm-6.193 0c0 .922.642 1.596 1.621 1.596.458 0 .763-.102 1.094-.362l-.318-.534a1.336 1.336 0 0 1-.795.273c-.528-.006-.916-.388-.916-.973s.388-.967.916-.973c.287 0 .547.095.796.273l.317-.534c-.33-.26-.636-.362-1.094-.362-.98 0-1.621.674-1.621 1.596zm8.522-1.596c-.382 0-.63.178-.802.445v-.37h-.655v3.04h.662v-1.703c0-.503.216-.783.648-.783.134 0 .274.02.414.077l.204-.623a1.408 1.408 0 0 0-.471-.083zm-17.72.318c-.317-.21-.756-.318-1.239-.318-.77 0-1.266.369-1.266.973 0 .495.37.801 1.05.897l.311.044c.363.051.534.146.534.318 0 .235-.242.37-.693.37-.458 0-.788-.147-1.011-.319l-.312.515c.363.267.82.394 1.316.394.878 0 1.387-.413 1.387-.992 0-.534-.4-.814-1.062-.91l-.311-.044c-.287-.038-.516-.095-.516-.299 0-.223.216-.356.579-.356.388 0 .763.147.948.26l.286-.533zm8.53-.318c-.382 0-.63.178-.801.445v-.37h-.655v3.04h.66v-1.703c0-.503.217-.783.65-.783.133 0 .273.02.413.077l.203-.623a1.409 1.409 0 0 0-.47-.083zm-5.642.076h-1.08v-.922h-.669v.922h-.616v.604h.616v1.387c0 .705.274 1.125 1.056 1.125.287 0 .617-.088.827-.235l-.191-.566a1.224 1.224 0 0 1-.585.172c-.33 0-.439-.204-.439-.51v-1.373h1.081v-.604zm-9.883 3.04V19.19c0-.719-.458-1.202-1.196-1.208-.388-.007-.788.114-1.069.54-.21-.337-.54-.54-1.004-.54-.325 0-.642.095-.89.45v-.374h-.662v3.04h.667v-1.685c0-.528.293-.808.745-.808.44 0 .661.286.661.801V21.1h.668v-1.685c0-.528.305-.808.744-.808.452 0 .668.286.668.801V21.1h.668z" fill="#fff"/></g><defs><clipPath id="a"><path fill="#fff" d="M0 0h61v39H0z"/></clipPath></defs></svg>