<svg width="61" height="39" fill="none" xmlns="http://www.w3.org/2000/svg"><g clip-path="url(#a)"><rect width="60.938" height="39" rx="3" fill="#00579F"/><path d="M27.381 26.693H23.63l2.346-13.45h3.752l-2.347 13.45zM40.981 13.573A9.888 9.888 0 0 0 37.617 13c-3.705 0-6.314 1.831-6.33 4.45-.031 1.931 1.868 3.004 3.288 3.648 1.451.659 1.944 1.088 1.944 1.675-.014.9-1.172 1.316-2.252 1.316-1.498 0-2.3-.214-3.52-.715l-.494-.215-.526 3.019c.88.371 2.502.701 4.185.716 3.936 0 6.499-1.803 6.53-4.593.014-1.531-.988-2.705-3.15-3.663-1.312-.616-2.116-1.03-2.116-1.66.016-.573.68-1.159 2.161-1.159a6.805 6.805 0 0 1 2.795.515l.34.143.51-2.904zM45.968 21.928l1.497-3.763c-.015.029.309-.787.494-1.288l.262 1.16s.71 3.219.865 3.891h-3.118zm4.63-8.685h-2.901c-.895 0-1.575.243-1.961 1.116l-5.573 12.333H44.1l.787-2.017h4.817c.107.472.447 2.017.447 2.017h3.474l-3.027-13.449zM20.496 13.243l-3.674 9.171-.402-1.86c-.679-2.146-2.81-4.478-5.187-5.637L14.6 26.678h3.967l5.897-13.435h-3.967z" fill="#fff"/><path d="M13.41 13.243H7.374l-.061.272c4.708 1.116 7.826 3.806 9.108 7.04l-1.313-6.181c-.216-.86-.88-1.103-1.698-1.13z" fill="#FAA61A"/></g><defs><clipPath id="a"><path fill="#fff" d="M0 0h61v39H0z"/></clipPath></defs></svg>