<svg width="19" height="19" fill="none" xmlns="http://www.w3.org/2000/svg"><path d="M12.625 3.25h4.688a.781.781 0 1 1 0 1.563h-.865L15.273 15.4a3.906 3.906 0 0 1-3.882 3.475H7.609A3.906 3.906 0 0 1 3.727 15.4L2.55 4.812h-.862a.781.781 0 0 1 0-1.562h4.687a3.125 3.125 0 0 1 6.25 0zM9.5 1.687A1.562 1.562 0 0 0 7.937 3.25h3.125A1.563 1.563 0 0 0 9.5 1.687zm-2.344 6.25v6.25a.781.781 0 1 0 1.563 0v-6.25a.781.781 0 0 0-1.563 0zm3.907-.78a.781.781 0 0 0-.782.78v6.25a.781.781 0 0 0 1.563 0v-6.25a.781.781 0 0 0-.781-.78z" fill="#fff"/></svg>