<svg width="25" height="18" fill="none" xmlns="http://www.w3.org/2000/svg"><path d="M24.448 4.092a.718.718 0 0 0-.614-.32H7.488l-.444-1.154a3.221 3.221 0 0 0-.458-.97c-.192-.269-.397-.458-.613-.569a2.714 2.714 0 0 0-.566-.225 2.01 2.01 0 0 0-.482-.059H1.627a.73.73 0 0 0-.746.757.76.76 0 0 0 .096.367c.064.119.157.21.277.273.12.063.245.094.373.094h3.298c.065 0 .125.008.18.024.057.016.133.083.23.201.096.118.176.296.24.533l3.453 9.48a.855.855 0 0 0 .41.474.7.7 0 0 0 .313.071h10.4c.16 0 .309-.047.445-.142a.702.702 0 0 0 .277-.355l3.683-7.782a.75.75 0 0 0-.108-.698zm-4.827 7.463h-9.269L7.897 5.287h14.83l-3.106 6.268zm-1.388 2.335c-.53 0-.983.186-1.36.557-.378.37-.566.816-.566 1.337 0 .52.188.966.566 1.337.377.371.83.556 1.36.556.53 0 .983-.185 1.36-.556.377-.37.566-.816.566-1.337 0-.52-.189-.966-.566-1.337a1.87 1.87 0 0 0-1.36-.556zm-6.934 0c-.353 0-.678.087-.975.26-.297.175-.53.403-.698.687a1.82 1.82 0 0 0-.253.947c0 .52.189.966.566 1.337.377.371.83.556 1.36.556.53 0 .983-.185 1.36-.556.378-.37.566-.816.566-1.337 0-.126-.012-.253-.036-.379a1.665 1.665 0 0 0-.289-.674 2.06 2.06 0 0 0-.854-.698 1.73 1.73 0 0 0-.361-.107 2.118 2.118 0 0 0-.386-.036z" fill="#fff"/></svg>