<svg width="20" height="15" fill="none" xmlns="http://www.w3.org/2000/svg"><path d="M13.303 8a1.515 1.515 0 0 1-1.294-.731L10 3.937 7.995 7.27a1.52 1.52 0 0 1-1.297.734c-.14 0-.282-.019-.416-.06L2 6.72v5.562c0 .46.312.86.756.969l6.756 1.69c.32.079.653.079.97 0l6.762-1.69c.443-.113.756-.513.756-.969V6.72L13.719 7.94c-.135.04-.275.059-.416.059zm6.644-3.506-1.61-3.213a.51.51 0 0 0-.521-.278L10 2l2.866 4.753c.118.197.356.29.578.228l6.184-1.765c.31-.091.46-.435.319-.722zM1.662 1.28.053 4.494a.51.51 0 0 0 .316.718l6.184 1.766a.514.514 0 0 0 .578-.228L10 2 2.18 1.003a.51.51 0 0 0-.519.278z" fill="#3F4E65"/></svg>