<svg width="18" height="14" fill="none" xmlns="http://www.w3.org/2000/svg"><path d="M3.375.333h11.25a2.708 2.708 0 0 1 2.704 2.555l.005.154v7.916a2.708 2.708 0 0 1-2.555 2.704l-.154.005H3.375a2.709 2.709 0 0 1-2.704-2.555l-.004-.154V3.042A2.708 2.708 0 0 1 3.222.337l.153-.004h11.25-11.25zm12.709 4.478L9.292 8.386a.625.625 0 0 1-.503.036l-.08-.035-6.792-3.575v6.146a1.459 1.459 0 0 0 1.338 1.454l.12.005h11.25a1.458 1.458 0 0 0 1.454-1.34l.005-.119V4.811zm-1.459-3.228H3.375a1.458 1.458 0 0 0-1.453 1.339l-.005.12v.357L9 7.127l7.084-3.729v-.356a1.459 1.459 0 0 0-1.34-1.454l-.119-.005z" fill="#3F4E65"/></svg>